<?xml version="1.0" standalone="no"?>
<!DOCTYPE svg PUBLIC "-//W3C//DTD SVG 20010904//EN"
 "http://www.w3.org/TR/2001/REC-SVG-20010904/DTD/svg10.dtd">
<svg version="1.0" xmlns="http://www.w3.org/2000/svg"
 width="500.000000pt" height="500.000000pt" viewBox="0 0 500.000000 500.000000"
 preserveAspectRatio="xMidYMid meet">
<metadata>
Created by potrace 1.16, written by Peter Selinger 2001-2019
</metadata>
<g transform="translate(0.000000,500.000000) scale(0.100000,-0.100000)"
fill="#000000" stroke="none">
<path d="M0 2500 l0 -2500 2500 0 2500 0 0 2500 0 2500 -2500 0 -2500 0 0
-2500z m1455 1705 c137 -29 263 -109 344 -219 50 -67 64 -95 98 -196 26 -80
28 -95 28 -245 -1 -160 -1 -160 -38 -260 -43 -117 -87 -185 -169 -260 -64 -60
-118 -91 -219 -126 -60 -22 -82 -23 -381 -27 l-318 -4 0 614 c0 509 -3 622
-15 668 -8 30 -15 58 -15 63 0 4 138 7 308 7 231 0 324 -4 377 -15z m885 -642
c0 -372 -5 -687 -10 -725 -19 -134 -75 -231 -166 -292 -44 -29 -195 -70 -224
-61 -19 6 -34 44 -46 116 -6 34 -4 37 22 43 48 12 102 54 123 95 37 71 41 148
41 761 0 545 -4 628 -26 703 -5 16 6 17 140 17 l146 0 0 -657z m1005 -1813 l0
-705 -117 -3 -118 -3 0 663 c0 365 -5 681 -10 702 -5 22 -6 44 -4 48 3 5 60 7
127 6 l122 -3 0 -705z m475 283 l5 -422 130 174 130 174 113 1 c61 0 112 -3
112 -6 0 -6 -66 -95 -194 -259 -47 -60 -86 -116 -86 -123 0 -8 26 -53 57 -100
31 -48 105 -161 165 -251 59 -90 108 -168 108 -173 0 -4 -57 -8 -127 -8 l-128
0 -56 88 c-31 48 -94 145 -140 217 l-84 130 -3 -218 -2 -217 -120 0 -119 0 -4
683 c-2 375 -7 695 -11 710 l-8 28 128 -3 129 -3 5 -422z m-2760 77 l0 -280
275 0 275 0 0 280 0 281 133 -3 132 -3 0 -670 0 -670 -132 -3 -133 -3 0 296 0
295 -275 0 -275 0 0 -295 0 -295 -130 0 -130 0 0 613 c0 561 -3 645 -26 720
-5 16 6 17 140 17 l146 0 0 -280z m1280 -474 c0 -206 4 -335 11 -353 20 -54
48 -73 104 -73 74 0 134 33 163 90 22 44 23 49 19 325 -2 154 -7 292 -12 308
l-7 27 125 0 c105 0 126 -3 131 -16 3 -9 6 -174 6 -369 0 -398 -2 -388 69
-366 21 6 43 11 48 11 9 0 43 -105 43 -134 0 -9 -29 -22 -82 -36 -144 -39
-214 -27 -258 45 -22 36 -34 43 -45 25 -12 -19 -86 -61 -151 -86 -122 -46
-257 -23 -328 56 -63 70 -68 104 -75 490 -4 190 -8 350 -10 355 -7 23 4 25
124 25 l125 0 0 -324z"/>
<path d="M1062 3549 l3 -484 140 0 c183 0 226 14 310 99 72 72 98 132 121 278
15 92 15 107 -1 201 -24 145 -57 220 -124 288 -77 77 -119 90 -304 96 l-147 5
2 -483z"/>
</g>
</svg>
